<?xml version="1.0" encoding="utf-8"?>
<!-- Generator: Adobe Illustrator 16.0.4, SVG Export Plug-In . SVG Version: 6.00 Build 0)  -->
<!DOCTYPE svg PUBLIC "-//W3C//DTD SVG 1.1//EN" "http://www.w3.org/Graphics/SVG/1.1/DTD/svg11.dtd">
<svg version="1.1" id="Layer_1" xmlns="http://www.w3.org/2000/svg" xmlns:xlink="http://www.w3.org/1999/xlink" x="0px" y="0px"
	 width="64px" height="64px" viewBox="-31.5 608.5 64 64" enable-background="new -31.5 608.5 64 64" xml:space="preserve">
<g id="Background" display="none">
	<rect x="-4.5" y="-4.5" display="inline" fill="#A3BEDE" stroke="#1D1D1B" stroke-miterlimit="10" width="650" height="650"/>
</g>
<g id="Inner_background">
	<g>
		<circle fill="#EDF2F8" cx="0.5" cy="640.521" r="29"/>
	</g>
</g>
<g id="Outer_circle">
	<g>
		<g>
			<path fill="#69798C" d="M29,640.521c-0.003,1.163-0.069,2.323-0.2,3.479c-0.016,0.137-0.032,0.273-0.05,0.41
				c0.044-0.345-0.017,0.106-0.022,0.146c-0.039,0.271-0.084,0.54-0.131,0.81c-0.101,0.58-0.223,1.156-0.358,1.729
				c-0.257,1.09-0.582,2.163-0.96,3.217c-0.09,0.251-0.185,0.5-0.281,0.749c-0.049,0.124-0.099,0.247-0.148,0.371
				c-0.015,0.034-0.186,0.441-0.054,0.132c-0.225,0.528-0.469,1.049-0.724,1.562c-0.487,0.984-1.035,1.938-1.629,2.863
				c-0.283,0.441-0.581,0.875-0.887,1.301c-0.153,0.214-0.311,0.424-0.469,0.633c-0.263,0.347,0.182-0.231-0.087,0.11
				c-0.108,0.138-0.218,0.273-0.328,0.408c-1.378,1.692-2.95,3.224-4.659,4.579c-0.342,0.271,0.234-0.178-0.111,0.087
				c-0.104,0.08-0.209,0.158-0.314,0.236c-0.21,0.157-0.424,0.31-0.639,0.461c-0.465,0.327-0.941,0.64-1.425,0.94
				c-0.934,0.581-1.902,1.104-2.894,1.579c-0.239,0.114-0.48,0.225-0.723,0.333c-0.121,0.054-0.243,0.106-0.365,0.158
				c0.31-0.133-0.097,0.04-0.132,0.055c-0.535,0.219-1.077,0.419-1.624,0.606c-1.062,0.364-2.146,0.661-3.24,0.903
				c-0.532,0.118-1.068,0.218-1.605,0.306c-0.136,0.022-0.271,0.043-0.406,0.063c-0.039,0.006-0.49,0.067-0.146,0.021
				c-0.319,0.042-0.639,0.077-0.959,0.109c-1.161,0.114-2.328,0.154-3.493,0.136c-0.56-0.009-1.118-0.037-1.676-0.077
				c-0.276-0.02-0.553-0.045-0.829-0.072c-0.137-0.014-0.274-0.029-0.412-0.045c-0.059-0.007-0.626-0.08-0.284-0.033
				c-1.124-0.153-2.237-0.378-3.336-0.658c-1.083-0.276-2.148-0.62-3.192-1.016c-0.249-0.095-0.496-0.194-0.742-0.295
				c-0.409-0.167,0.273,0.118-0.131-0.056c-0.122-0.053-0.243-0.106-0.364-0.161c-0.523-0.233-1.039-0.486-1.548-0.75
				c-0.975-0.504-1.917-1.068-2.831-1.677c-0.437-0.291-0.864-0.597-1.285-0.91c-0.105-0.078-0.209-0.158-0.313-0.237
				c0.264,0.201-0.08-0.065-0.109-0.089c-0.239-0.189-0.475-0.385-0.708-0.582c-0.833-0.703-1.624-1.457-2.377-2.246
				c-0.361-0.379-0.71-0.77-1.051-1.167c-0.171-0.199-0.337-0.401-0.503-0.604c-0.083-0.103-0.164-0.205-0.246-0.308
				c-0.105-0.135-0.108-0.138-0.007-0.007c-0.053-0.068-0.106-0.139-0.159-0.208c-1.327-1.75-2.448-3.652-3.361-5.648
				c-0.055-0.12-0.109-0.241-0.162-0.363c-0.016-0.034-0.188-0.439-0.058-0.13c-0.103-0.245-0.201-0.492-0.298-0.74
				c-0.21-0.54-0.4-1.087-0.579-1.638c-0.346-1.07-0.624-2.162-0.847-3.264c-0.108-0.536-0.198-1.075-0.277-1.615
				c-0.066-0.451,0.038,0.307-0.02-0.146c-0.018-0.137-0.033-0.273-0.048-0.411c-0.036-0.32-0.065-0.643-0.091-0.964
				c-0.094-1.165-0.112-2.335-0.072-3.503c0.02-0.557,0.058-1.112,0.108-1.667c0.024-0.274,0.055-0.55,0.087-0.823
				c0.004-0.039,0.064-0.492,0.017-0.147c0.024-0.181,0.052-0.362,0.08-0.542c0.173-1.118,0.418-2.225,0.717-3.314
				c0.295-1.076,0.658-2.133,1.071-3.168c0.049-0.123,0.101-0.246,0.151-0.369c-0.129,0.311,0.042-0.096,0.058-0.13
				c0.106-0.243,0.217-0.483,0.33-0.724c0.243-0.52,0.504-1.029,0.776-1.533c0.521-0.965,1.102-1.896,1.725-2.799
				c0.149-0.215,0.303-0.428,0.458-0.64c0.078-0.106,0.156-0.211,0.235-0.315c0.022-0.03,0.289-0.375,0.085-0.112
				c0.349-0.448,0.713-0.884,1.086-1.312c0.718-0.82,1.485-1.598,2.288-2.337c0.385-0.354,0.782-0.696,1.185-1.031
				c0.202-0.167,0.407-0.331,0.613-0.492c-0.261,0.205,0.083-0.062,0.112-0.085c0.139-0.105,0.28-0.209,0.421-0.312
				c1.774-1.297,3.697-2.386,5.711-3.264c0.404-0.177-0.276,0.113,0.131-0.057c0.123-0.051,0.247-0.1,0.37-0.149
				c0.248-0.099,0.497-0.192,0.747-0.284c0.544-0.201,1.096-0.383,1.65-0.551c1.079-0.328,2.178-0.586,3.287-0.789
				c0.269-0.05,0.539-0.094,0.809-0.136c0.136-0.021,0.271-0.04,0.407-0.06c-0.345,0.049,0.108-0.012,0.147-0.017
				c0.596-0.073,1.194-0.124,1.793-0.161c1.167-0.072,2.339-0.07,3.506-0.008c0.555,0.029,1.107,0.078,1.659,0.137
				c0.137,0.016,0.273,0.032,0.41,0.049c0.453,0.056-0.306-0.044,0.146,0.02c0.315,0.045,0.631,0.097,0.945,0.151
				c1.111,0.193,2.211,0.457,3.293,0.774c0.514,0.151,1.022,0.32,1.528,0.498c0.251,0.09,0.501,0.184,0.75,0.279
				c0.124,0.047,0.248,0.097,0.371,0.146c0.053,0.021,0.563,0.234,0.256,0.104c1.015,0.432,2.001,0.926,2.962,1.467
				c0.954,0.537,1.875,1.134,2.766,1.773c0.213,0.152,0.423,0.31,0.632,0.468c0.347,0.263-0.231-0.183,0.11,0.087
				c0.104,0.081,0.205,0.163,0.308,0.245c0.441,0.356,0.87,0.729,1.291,1.108c0.744,0.674,1.449,1.389,2.123,2.133
				c0.322,0.355,0.633,0.722,0.938,1.093c0.084,0.101,0.165,0.204,0.247,0.306c0.023,0.029,0.291,0.372,0.089,0.109
				c0.16,0.207,0.316,0.418,0.471,0.63c1.193,1.632,2.209,3.39,3.049,5.227c0.092,0.201,0.181,0.403,0.269,0.606
				c-0.134-0.309,0.039,0.098,0.054,0.133c0.05,0.123,0.099,0.247,0.147,0.371c0.196,0.496,0.375,1,0.544,1.506
				c0.327,0.98,0.596,1.979,0.819,2.987c0.107,0.487,0.2,0.979,0.283,1.471c0.046,0.271,0.086,0.542,0.124,0.812
				c-0.049-0.345,0.012,0.108,0.017,0.147c0.017,0.137,0.032,0.273,0.047,0.41C28.946,638.381,28.997,639.451,29,640.521
				c0.004,1.935,3.004,1.935,3,0c-0.021-9.244-4.156-18.189-11.256-24.127c-3.522-2.945-7.651-5.111-12.087-6.307
				c-4.625-1.246-9.504-1.365-14.202-0.482c-8.956,1.685-16.88,7.503-21.374,15.397c-4.631,8.138-5.357,18.27-1.922,26.979
				c3.385,8.585,10.42,15.31,19.13,18.345c8.845,3.081,18.927,1.879,26.86-3.061c7.742-4.821,13.174-13.014,14.491-22.049
				c0.228-1.558,0.355-3.122,0.359-4.696C32.004,638.587,29.004,638.588,29,640.521z"/>
		</g>
	</g>
</g>
<g id="AE_Logo">
	<ellipse display="none" fill="none" stroke="#1D1D1B" stroke-miterlimit="10" cx="3" cy="640.271" rx="29.5" ry="18.55"/>
	
		<linearGradient id="logo_path_1_" gradientUnits="userSpaceOnUse" x1="-49.0015" y1="-100.251" x2="1.0996" y2="-100.251" gradientTransform="matrix(1 0 0 -1 22.5 540)">
		<stop  offset="0" style="stop-color:#960800"/>
		<stop  offset="0.5" style="stop-color:#FF0000;stop-opacity:0.749"/>
		<stop  offset="1" style="stop-color:#00FF00"/>
	</linearGradient>
	<path id="logo_path" fill="url(#logo_path_1_)" d="M-2.4,658.521c-0.081-1.166,2.783-12.514,1.683-16.074
		c-2.158-1.078-16.815-1.109-20.666-0.188c-0.57,2.229,0.669,5.59,1.817,7.434c0.624,1.005,2.773,3.869,0.386,2.929
		c-2.219-1.199-5.183-4.414-6.619-8.199c-1.2-3-0.812-7.418,0.8-10.301c1.88-3.364,5.11-6.006,8.3-7.699
		c8.1-4.301,14.9-4.7,19.7-4.7c8.4,0,14.699,2,18.199,4c2.443,1.396-0.699,1.399-2.551,0.999
		c-1.831-0.396-10.995-2.768-16.569-2.055c-1.909,0.245-2.681,1.462-2.185,3.994c0.899,3.302,2.074,6.551,4.005,9.361
		c4.2,1.1,10.901,1.199,13.312,1.58c1.388,0.221,1.464,0.898,0.055,1.143c-2.183,0.38-9.467,0.678-12.991,1.651
		c-1.653,2.833-2.103,7.313-2.063,9.183c0.051,2.335,0.178,4.15,3.55,4.154c8.439,0.007,12.009-2.501,15.732-2.944
		c2.086-0.25,2.591,0.412,1.652,0.901C17.724,657.07,9.5,659.621-2.4,658.521z M-1.017,638.06c0.121-2.917-0.994-5.958-2.091-8.525
		c-0.984-2.302-3.823-3.661-6.384-2.878c-2.976,0.848-6.123,2.689-8.426,4.857c-1.762,1.78-3.561,3.854-3.493,6.436
		C-18.21,639.386-5.026,638.969-1.017,638.06z"/>
</g>
</svg>
