<?xml version="1.0" encoding="utf-8"?>
<!-- Generator: Adobe Illustrator 16.0.4, SVG Export Plug-In . SVG Version: 6.00 Build 0)  -->
<!DOCTYPE svg PUBLIC "-//W3C//DTD SVG 1.1//EN" "http://www.w3.org/Graphics/SVG/1.1/DTD/svg11.dtd">
<svg version="1.1" xmlns="http://www.w3.org/2000/svg" xmlns:xlink="http://www.w3.org/1999/xlink" x="0px" y="0px" width="640px"
	 height="640px" viewBox="0 0 640 640" enable-background="new 0 0 640 640" xml:space="preserve">
<g id="outer_circle">
	<g>
		<circle fill="#69798C" cx="320" cy="320" r="316"/>
	</g>
</g>
<g id="inner_background">
	<g>
		<circle fill="#EDF2F8" cx="320" cy="320" r="284"/>
	</g>
</g>
<g id="ae_logo">
	<linearGradient id="ae_logo_fill" gradientUnits="userSpaceOnUse" x1="49.9878" y1="317.2959" x2="551" y2="317.2959">
		<stop  offset="0" style="stop-color:#960800"/>
		<stop  offset="0.5" style="stop-color:#FF3F3F"/>
		<stop  offset="1" style="stop-color:#00FF00"/>
	</linearGradient>
	
		<path id="ae_logo_path" fill="url(#ae_logo_fill)" d="
		M291,500c-0.8037-11.6562,27.8291-125.1338,16.8301-160.7383c-21.5796-10.7891-168.1528-11.0957-206.6655-1.8867
		c-5.6982,22.2969,6.6943,55.8926,18.1704,74.334c6.2417,10.0527,27.729,38.6895,3.8604,29.291C101,429,71.3677,396.8535,57,359
		c-12-30-8.1226-74.1714,8-103c18.8032-33.6475,51.104-60.0674,83-77c81-43,149-47,197-47c84.0059,0,147,20,182,40
		c24.4326,13.9614-7,14-25.5156,9.9961c-18.3057-3.9585-109.9434-27.6851-165.6895-20.5479
		c-19.0947,2.4448-26.8057,14.6152-21.8491,39.9404C322.9443,234.4023,334.6924,266.895,354,295
		c42,11,109.0137,11.9897,133.1191,15.8037C501,313,501.7637,319.7876,487.6709,322.2246
		C465.8418,326.0273,393,329,357.7559,338.7422c-16.5312,28.3262-21.0244,73.1328-20.6367,91.8223
		c0.5117,23.3516,1.7852,41.5088,35.5,41.541c84.3975,0.0684,120.0947-25.0039,157.3242-29.4434
		c20.8633-2.4941,25.9121,4.1211,16.5234,9.0176C492.2393,485.4863,410,511,291,500z M304.835,295.3804
		c1.2129-29.1733-9.938-59.5791-20.9028-85.2563c-9.8433-23.0122-38.2354-36.6147-63.8472-28.7744
		c-29.7554,8.4741-61.2266,26.8892-84.2622,48.5703c-17.6201,17.8037-35.6113,38.5381-34.9316,64.3525
		C132.8999,308.6396,264.7456,304.4712,304.835,295.3804z"/>
</g>
</svg>
