<?xml version="1.0" encoding="utf-8"?>
<!-- Generator: Adobe Illustrator 16.0.4, SVG Export Plug-In . SVG Version: 6.00 Build 0)  -->
<!DOCTYPE svg PUBLIC "-//W3C//DTD SVG 1.1//EN" "http://www.w3.org/Graphics/SVG/1.1/DTD/svg11.dtd">
<svg version="1.1" xmlns="http://www.w3.org/2000/svg" xmlns:xlink="http://www.w3.org/1999/xlink" x="0px" y="0px" width="640px"
	 height="640px" viewBox="0 0 640 640" enable-background="new 0 0 640 640" xml:space="preserve">
<g id="Background" display="none">
	<rect x="-4.5" y="-4.5" display="inline" fill="#A3BEDE" stroke="#1D1D1B" stroke-miterlimit="10" width="650" height="650"/>
</g>
<g id="Inner_background">
	<g>
		<circle fill="#FFFFFF" cx="320" cy="320" r="290"/>
	</g>
</g>
<g id="Outer_circle">
	<g>
		<g>
			<path fill="#69798C" d="M605,320c-0.026,11.632-0.688,23.234-1.996,34.792c-0.154,1.368-0.328,2.734-0.502,4.101
				c0.438-3.45-0.162,1.063-0.219,1.453c-0.395,2.707-0.845,5.406-1.313,8.102c-1.009,5.801-2.229,11.564-3.579,17.295
				c-2.568,10.899-5.824,21.63-9.603,32.168c-0.899,2.511-1.851,5.002-2.817,7.487c-0.482,1.24-0.981,2.475-1.48,3.708
				c-0.143,0.35-1.855,4.419-0.537,1.322c-2.249,5.283-4.685,10.485-7.234,15.63c-4.877,9.843-10.36,19.379-16.287,28.624
				c-2.835,4.422-5.814,8.75-8.877,13.017c-1.529,2.131-3.1,4.231-4.685,6.321c-2.629,3.468,1.821-2.313-0.866,1.107
				c-1.08,1.373-2.18,2.73-3.283,4.085c-13.781,16.923-29.5,32.237-46.595,45.792c-3.409,2.703,2.35-1.777-1.107,0.867
				c-1.041,0.797-2.093,1.579-3.145,2.362c-2.104,1.566-4.24,3.092-6.385,4.604c-4.654,3.279-9.422,6.395-14.255,9.404
				c-9.333,5.812-19.021,11.047-28.935,15.797c-2.391,1.145-4.804,2.242-7.224,3.323c-1.212,0.541-2.431,1.066-3.649,1.592
				c3.09-1.331-0.972,0.394-1.322,0.537c-5.348,2.191-10.772,4.191-16.238,6.068c-10.614,3.645-21.453,6.615-32.407,9.039
				c-5.319,1.177-10.679,2.172-16.054,3.056c-1.352,0.223-2.706,0.426-4.061,0.63c-0.388,0.059-4.901,0.674-1.453,0.219
				c-3.19,0.421-6.391,0.768-9.594,1.086c-11.604,1.151-23.277,1.548-34.934,1.36c-5.591-0.09-11.177-0.372-16.754-0.771
				c-2.765-0.197-5.525-0.452-8.284-0.726c-1.374-0.137-2.746-0.291-4.118-0.447c-0.584-0.065-6.261-0.798-2.837-0.331
				c-11.238-1.533-22.372-3.781-33.36-6.581c-10.828-2.76-21.477-6.202-31.923-10.16c-2.49-0.943-4.96-1.937-7.423-2.946
				c-4.083-1.673,2.738,1.187-1.311-0.558c-1.219-0.525-2.43-1.066-3.642-1.607c-5.236-2.339-10.387-4.863-15.479-7.5
				c-9.746-5.046-19.175-10.69-28.307-16.773c-4.369-2.91-8.642-5.962-12.852-9.097c-1.051-0.782-2.093-1.579-3.134-2.376
				c2.635,2.016-0.801-0.652-1.093-0.885c-2.395-1.898-4.749-3.85-7.084-5.82c-8.337-7.034-16.244-14.572-23.77-22.466
				c-3.613-3.789-7.103-7.696-10.514-11.669c-1.707-1.987-3.374-4.008-5.028-6.038c-0.827-1.017-1.642-2.043-2.456-3.069
				c-1.056-1.353-1.079-1.374-0.07-0.066c-0.532-0.692-1.062-1.388-1.588-2.086c-13.265-17.498-24.48-36.519-33.611-56.479
				c-0.552-1.206-1.087-2.419-1.623-3.633c-0.153-0.347-1.882-4.4-0.579-1.3c-1.031-2.453-2.013-4.927-2.978-7.407
				c-2.1-5.396-4.005-10.865-5.787-16.374c-3.461-10.702-6.241-21.618-8.47-32.641c-1.083-5.355-1.982-10.747-2.771-16.153
				c-0.658-4.511,0.381,3.069-0.195-1.461c-0.174-1.367-0.329-2.736-0.484-4.106c-0.363-3.209-0.652-6.427-0.912-9.646
				c-0.94-11.646-1.125-23.348-0.721-35.022c0.192-5.567,0.576-11.126,1.075-16.673c0.248-2.751,0.552-5.497,0.875-8.241
				c0.046-0.387,0.641-4.919,0.17-1.468c0.247-1.812,0.523-3.619,0.804-5.425c1.734-11.177,4.178-22.239,7.168-33.145
				c2.95-10.755,6.576-21.319,10.712-31.673c0.493-1.235,1.003-2.463,1.513-3.691c-1.289,3.106,0.427-0.952,0.579-1.3
				c1.06-2.431,2.168-4.839,3.292-7.241c2.429-5.187,5.041-10.287,7.764-15.326c5.212-9.646,11.017-18.968,17.252-27.984
				c1.493-2.158,3.028-4.287,4.576-6.405c0.774-1.059,1.562-2.107,2.349-3.155c0.224-0.298,2.888-3.74,0.849-1.122
				c3.488-4.478,7.13-8.834,10.865-13.107c7.178-8.214,14.851-15.987,22.874-23.375c3.853-3.548,7.82-6.969,11.852-10.312
				c2.017-1.672,4.067-3.305,6.127-4.923c-2.608,2.05,0.824-0.624,1.122-0.849c1.394-1.057,2.803-2.091,4.214-3.124
				c17.743-12.97,36.976-23.859,57.114-32.642c4.041-1.763-2.764,1.134,1.311-0.558c1.229-0.51,2.464-1.003,3.7-1.497
				c2.475-0.989,4.97-1.928,7.471-2.85c5.443-2.007,10.957-3.817,16.506-5.502c10.789-3.276,21.78-5.862,32.868-7.895
				c2.689-0.493,5.388-0.931,8.089-1.35c1.355-0.21,2.714-0.402,4.072-0.594c-3.448,0.487,1.081-0.123,1.469-0.17
				c5.959-0.729,11.944-1.24,17.936-1.612c11.67-0.726,23.382-0.699,35.056-0.08c5.542,0.293,11.072,0.777,16.589,1.376
				c1.37,0.149,2.738,0.316,4.106,0.484c4.533,0.555-3.053-0.442,1.461,0.195c3.161,0.446,6.312,0.964,9.458,1.511
				c11.115,1.933,22.103,4.571,32.925,7.75c5.141,1.511,10.229,3.194,15.281,4.98c2.516,0.889,5.013,1.829,7.503,2.785
				c1.243,0.477,2.479,0.971,3.716,1.465c0.528,0.211,5.628,2.343,2.556,1.036c10.143,4.316,20.013,9.262,29.614,14.671
				c9.546,5.377,18.757,11.34,27.656,17.727c2.131,1.529,4.231,3.101,6.321,4.685c3.468,2.629-2.313-1.822,1.107,0.867
				c1.03,0.81,2.05,1.632,3.069,2.455c4.415,3.564,8.706,7.281,12.913,11.088c7.44,6.733,14.498,13.883,21.23,21.322
				c3.222,3.561,6.334,7.218,9.382,10.927c0.832,1.013,1.65,2.036,2.469,3.059c0.232,0.291,2.912,3.72,0.885,1.093
				c1.602,2.076,3.164,4.183,4.711,6.3c11.926,16.314,22.085,33.895,30.488,52.264c0.92,2.011,1.805,4.038,2.68,6.069
				c-1.332-3.09,0.393,0.972,0.537,1.322c0.504,1.231,0.992,2.47,1.48,3.708c1.959,4.968,3.751,10.001,5.44,15.068
				c3.267,9.799,5.955,19.786,8.187,29.87c1.078,4.875,2.001,9.783,2.834,14.705c0.457,2.702,0.858,5.413,1.241,8.126
				c-0.486-3.448,0.123,1.081,0.17,1.468c0.168,1.369,0.316,2.741,0.466,4.112C604.463,298.593,604.976,309.298,605,320
				c0.045,19.344,30.045,19.348,30,0c-0.213-92.438-41.558-181.894-112.556-241.267c-35.225-29.458-76.51-51.118-120.871-63.069
				c-46.247-12.458-95.035-13.66-142.019-4.824C169.993,27.682,90.75,85.866,45.814,164.816
				C-0.498,246.184-7.755,347.511,26.589,434.611c33.849,85.845,104.207,153.094,191.305,183.441
				c88.446,30.817,189.273,18.795,268.6-30.603c77.427-48.215,131.746-130.138,144.916-220.486
				c2.271-15.575,3.555-31.222,3.591-46.964C635.045,300.652,605.045,300.656,605,320z"/>
		</g>
	</g>
</g>
<g id="AE_Logo">
	<linearGradient id="red_green" gradientUnits="userSpaceOnUse" x1="51.0005" y1="318.0039" x2="551" y2="318.0039">
		<stop  offset="0" style="stop-color:#960800"/>
		<stop  offset="0.5" style="stop-color:#FF0000;stop-opacity:0.749"/>
		<stop  offset="1" style="stop-color:#00FF00"/>
	</linearGradient>
	
		<path fill="url(#red_green)" d="
		M291.131,500.936c-0.804-11.656,27.698-126.069,16.699-161.674c-21.58-10.789-168.153-11.096-206.666-1.887
		c-5.698,22.297,6.694,55.893,18.17,74.334c6.242,10.053,27.729,38.689,3.86,29.291c-21.469-11.16-52.412-49.594-66.779-87.447
		c-10.312-28.486-5.433-67.876,10.69-96.705c18.803-33.647,47.574-58.542,79.23-75.917c82.031-45.036,157.518-50.853,238.618-46.797
		c18.868,0.94,95.725,14.093,140.237,40.02c24.31,14.174-12.104,10.786-23.707,7.843c-18.154-4.605-109.943-27.685-165.689-20.548
		c-19.095,2.445-26.806,14.615-21.849,39.94c8.999,33.014,20.745,66.768,40.052,94.873c41.737,13.566,109.671,7.781,133.121,14.542
		c14.256,4.137,14.645,8.984,0.552,11.421c-21.829,3.803-91.188,4.053-129.915,16.518c-16.531,28.326-21.024,73.133-20.637,91.822
		c0.512,23.352,1.785,41.509,35.5,41.541c84.397,0.068,120.095-25.004,157.324-29.443c20.863-2.494,25.912,4.121,16.523,9.018
		C492.239,485.486,407.238,510.346,291.131,500.936z M304.835,295.38c1.213-29.173-9.938-59.579-20.903-85.256
		c-9.843-23.012-38.235-36.615-63.847-28.774c-29.755,8.474-61.227,26.889-84.262,48.57c-17.62,17.804-35.611,38.538-34.932,64.353
		C132.9,308.64,264.746,304.471,304.835,295.38z"/>
</g>
</svg>
